<?xml version="1.0" encoding="UTF-8" standalone="no"?>
<!-- Created with Inkscape (http://www.inkscape.org/) -->

<svg
   width="512"
   height="512"
   viewBox="0 0 512 512"
   version="1.1"
   id="svg1"
   xmlns:xlink="http://www.w3.org/1999/xlink"
   xmlns="http://www.w3.org/2000/svg"
   xmlns:svg="http://www.w3.org/2000/svg">
  <g
     id="layer1">
    <rect
       style="fill:#20466b;fill-opacity:1"
       id="rect1"
       width="512.65894"
       height="512.65894"
       x="-0.65895206"
       y="0.65894723" />
    <path
       d="m 137.49474,270.50704 h -11.56081 l -7.99942,-21.03348 H 82.649388 l -7.999422,21.03348 H 63.637064 l 29.696478,-75.46711 h 14.464708 z m -22.90246,-29.6496 -14.30033,-37.04934 -14.355129,37.04934 z m 104.21164,-8.00793 q 0,10.28866 -4.87636,18.65138 -4.82157,8.3627 -12.87577,12.97486 -5.58864,3.19304 -12.49226,4.61216 -6.84881,1.41913 -18.08088,1.41913 H 149.8774 v -75.46711 h 20.38209 q 11.94435,0 18.95753,1.62186 7.06799,1.57118 11.94434,4.35874 8.32817,4.8149 12.98537,12.82282 4.65719,8.00793 4.65719,19.00616 z m -11.34164,-0.15205 q 0,-8.86954 -3.34222,-14.95151 -3.34223,-6.08197 -9.97189,-9.5791 -4.82157,-2.53415 -10.24583,-3.49714 -5.42427,-1.01366 -12.98536,-1.01366 h -10.19105 v 58.23487 h 10.19105 q 7.83505,0 13.64284,-1.06435 5.86259,-1.06434 10.73896,-3.95328 6.08175,-3.5985 9.09523,-9.47774 3.06827,-5.87924 3.06827,-14.69809 z m 101.52691,37.80958 h -10.84853 v -65.02639 l -22.68329,44.24633 h -6.4653 l -22.51891,-44.24633 v 65.02639 h -10.13625 v -75.46711 h 14.79344 l 21.75186,42.01628 21.03957,-42.01628 h 15.06741 z m 50.68125,0 h -32.21685 v -7.70383 h 10.68416 v -60.05945 h -10.68416 v -7.70383 h 32.21685 v 7.70383 h -10.68416 v 60.05945 h 10.68416 z m 80.7065,0 h -13.42368 l -38.68214,-67.50986 v 67.50986 h -10.13625 v -75.46711 h 16.82069 l 35.28513,61.63062 v -61.63062 h 10.13625 z"
       id="text3"
       style="font-size:137.333px;white-space:pre;fill:#ffffff;stroke-width:0.78585"
       aria-label="ADMIN" />
  </g>
</svg>
